<mxfile host="app.diagrams.net" agent="Mozilla/5.0 (Macintosh; Intel Mac OS X 10_15_7) AppleWebKit/537.36 (KHTML, like Gecko) Chrome/131.0.0.0 Safari/537.36" version="24.9.3">
  <diagram name="Page-1" id="LLFaGWCvefUL2wmg-Dwp">
    <mxGraphModel dx="1739" dy="578" grid="1" gridSize="10" guides="1" tooltips="1" connect="1" arrows="1" fold="1" page="1" pageScale="1" pageWidth="827" pageHeight="1169" math="0" shadow="0">
      <root>
        <mxCell id="0" />
        <mxCell id="1" parent="0" />
        <mxCell id="LLo9nAMNrPa8nIQ_r4en-2" style="edgeStyle=orthogonalEdgeStyle;rounded=0;orthogonalLoop=1;jettySize=auto;html=1;entryX=0.5;entryY=0;entryDx=0;entryDy=0;" edge="1" parent="1" target="LLo9nAMNrPa8nIQ_r4en-6">
          <mxGeometry relative="1" as="geometry">
            <mxPoint x="340" y="380" as="targetPoint" />
            <mxPoint x="320" y="400" as="sourcePoint" />
            <Array as="points">
              <mxPoint x="320" y="410" />
              <mxPoint x="320" y="410" />
            </Array>
          </mxGeometry>
        </mxCell>
        <mxCell id="LLo9nAMNrPa8nIQ_r4en-3" value="початок" style="ellipse;whiteSpace=wrap;html=1;aspect=fixed;" vertex="1" parent="1">
          <mxGeometry x="295" y="350" width="50" height="50" as="geometry" />
        </mxCell>
        <mxCell id="LLo9nAMNrPa8nIQ_r4en-4" value="кінець" style="ellipse;whiteSpace=wrap;html=1;aspect=fixed;" vertex="1" parent="1">
          <mxGeometry x="440" y="930" width="50" height="50" as="geometry" />
        </mxCell>
        <mxCell id="LLo9nAMNrPa8nIQ_r4en-12" style="edgeStyle=orthogonalEdgeStyle;rounded=0;orthogonalLoop=1;jettySize=auto;html=1;" edge="1" parent="1" source="LLo9nAMNrPa8nIQ_r4en-6" target="LLo9nAMNrPa8nIQ_r4en-7">
          <mxGeometry relative="1" as="geometry" />
        </mxCell>
        <mxCell id="LLo9nAMNrPa8nIQ_r4en-6" value="Надходження дзвінку" style="rounded=1;whiteSpace=wrap;html=1;" vertex="1" parent="1">
          <mxGeometry x="260" y="440" width="120" height="60" as="geometry" />
        </mxCell>
        <mxCell id="LLo9nAMNrPa8nIQ_r4en-10" style="edgeStyle=orthogonalEdgeStyle;rounded=0;orthogonalLoop=1;jettySize=auto;html=1;entryX=0.5;entryY=0;entryDx=0;entryDy=0;" edge="1" parent="1" source="LLo9nAMNrPa8nIQ_r4en-7" target="LLo9nAMNrPa8nIQ_r4en-11">
          <mxGeometry relative="1" as="geometry">
            <mxPoint x="470" y="585" as="targetPoint" />
          </mxGeometry>
        </mxCell>
        <mxCell id="LLo9nAMNrPa8nIQ_r4en-16" style="edgeStyle=orthogonalEdgeStyle;rounded=0;orthogonalLoop=1;jettySize=auto;html=1;" edge="1" parent="1" source="LLo9nAMNrPa8nIQ_r4en-7" target="LLo9nAMNrPa8nIQ_r4en-15">
          <mxGeometry relative="1" as="geometry" />
        </mxCell>
        <mxCell id="LLo9nAMNrPa8nIQ_r4en-7" value="Чи є вільний&amp;nbsp;&lt;div&gt;оператор?&lt;/div&gt;" style="rhombus;whiteSpace=wrap;html=1;" vertex="1" parent="1">
          <mxGeometry x="255" y="545" width="130" height="80" as="geometry" />
        </mxCell>
        <mxCell id="LLo9nAMNrPa8nIQ_r4en-8" value="так" style="text;html=1;align=center;verticalAlign=middle;resizable=0;points=[];autosize=1;strokeColor=none;fillColor=none;" vertex="1" parent="1">
          <mxGeometry x="240" y="555" width="40" height="30" as="geometry" />
        </mxCell>
        <mxCell id="LLo9nAMNrPa8nIQ_r4en-9" value="ні" style="text;html=1;align=center;verticalAlign=middle;resizable=0;points=[];autosize=1;strokeColor=none;fillColor=none;" vertex="1" parent="1">
          <mxGeometry x="370" y="555" width="30" height="30" as="geometry" />
        </mxCell>
        <mxCell id="LLo9nAMNrPa8nIQ_r4en-23" style="edgeStyle=orthogonalEdgeStyle;rounded=0;orthogonalLoop=1;jettySize=auto;html=1;entryX=0.5;entryY=0;entryDx=0;entryDy=0;exitX=0.5;exitY=1;exitDx=0;exitDy=0;" edge="1" parent="1" source="LLo9nAMNrPa8nIQ_r4en-11" target="LLo9nAMNrPa8nIQ_r4en-4">
          <mxGeometry relative="1" as="geometry" />
        </mxCell>
        <mxCell id="LLo9nAMNrPa8nIQ_r4en-25" style="edgeStyle=orthogonalEdgeStyle;rounded=0;orthogonalLoop=1;jettySize=auto;html=1;" edge="1" parent="1" source="LLo9nAMNrPa8nIQ_r4en-11" target="LLo9nAMNrPa8nIQ_r4en-26">
          <mxGeometry relative="1" as="geometry">
            <mxPoint x="630" y="600" as="targetPoint" />
          </mxGeometry>
        </mxCell>
        <mxCell id="LLo9nAMNrPa8nIQ_r4en-11" value="Чи це 4та спроба?" style="rhombus;whiteSpace=wrap;html=1;" vertex="1" parent="1">
          <mxGeometry x="400" y="620" width="130" height="80" as="geometry" />
        </mxCell>
        <mxCell id="LLo9nAMNrPa8nIQ_r4en-14" value="ні" style="text;html=1;align=center;verticalAlign=middle;resizable=0;points=[];autosize=1;strokeColor=none;fillColor=none;" vertex="1" parent="1">
          <mxGeometry x="520" y="625" width="30" height="30" as="geometry" />
        </mxCell>
        <mxCell id="LLo9nAMNrPa8nIQ_r4en-18" value="" style="edgeStyle=orthogonalEdgeStyle;rounded=0;orthogonalLoop=1;jettySize=auto;html=1;" edge="1" parent="1" source="LLo9nAMNrPa8nIQ_r4en-15" target="LLo9nAMNrPa8nIQ_r4en-17">
          <mxGeometry relative="1" as="geometry" />
        </mxCell>
        <mxCell id="LLo9nAMNrPa8nIQ_r4en-15" value="Обробка запиту" style="rounded=1;whiteSpace=wrap;html=1;" vertex="1" parent="1">
          <mxGeometry x="110" y="640" width="120" height="60" as="geometry" />
        </mxCell>
        <mxCell id="LLo9nAMNrPa8nIQ_r4en-21" style="edgeStyle=orthogonalEdgeStyle;rounded=0;orthogonalLoop=1;jettySize=auto;html=1;entryX=0.5;entryY=0;entryDx=0;entryDy=0;" edge="1" parent="1" source="LLo9nAMNrPa8nIQ_r4en-17" target="LLo9nAMNrPa8nIQ_r4en-24">
          <mxGeometry relative="1" as="geometry">
            <mxPoint x="30" y="910" as="targetPoint" />
          </mxGeometry>
        </mxCell>
        <mxCell id="LLo9nAMNrPa8nIQ_r4en-22" style="edgeStyle=orthogonalEdgeStyle;rounded=0;orthogonalLoop=1;jettySize=auto;html=1;entryX=0;entryY=0.5;entryDx=0;entryDy=0;" edge="1" parent="1" source="LLo9nAMNrPa8nIQ_r4en-17" target="LLo9nAMNrPa8nIQ_r4en-11">
          <mxGeometry relative="1" as="geometry">
            <mxPoint x="350" y="890" as="targetPoint" />
          </mxGeometry>
        </mxCell>
        <mxCell id="LLo9nAMNrPa8nIQ_r4en-17" value="Чи черга &amp;lt; 10?" style="rhombus;whiteSpace=wrap;html=1;rounded=0;" vertex="1" parent="1">
          <mxGeometry x="100" y="740" width="140" height="80" as="geometry" />
        </mxCell>
        <mxCell id="LLo9nAMNrPa8nIQ_r4en-19" value="так" style="text;html=1;align=center;verticalAlign=middle;resizable=0;points=[];autosize=1;strokeColor=none;fillColor=none;" vertex="1" parent="1">
          <mxGeometry x="90" y="740" width="40" height="30" as="geometry" />
        </mxCell>
        <mxCell id="LLo9nAMNrPa8nIQ_r4en-20" value="ні" style="text;html=1;align=center;verticalAlign=middle;resizable=0;points=[];autosize=1;strokeColor=none;fillColor=none;" vertex="1" parent="1">
          <mxGeometry x="220" y="740" width="30" height="30" as="geometry" />
        </mxCell>
        <mxCell id="LLo9nAMNrPa8nIQ_r4en-28" style="edgeStyle=orthogonalEdgeStyle;rounded=0;orthogonalLoop=1;jettySize=auto;html=1;" edge="1" parent="1" source="LLo9nAMNrPa8nIQ_r4en-24" target="LLo9nAMNrPa8nIQ_r4en-29">
          <mxGeometry relative="1" as="geometry">
            <mxPoint x="-10" y="970" as="targetPoint" />
          </mxGeometry>
        </mxCell>
        <mxCell id="LLo9nAMNrPa8nIQ_r4en-24" value="Додавання клієнта у чергу" style="rounded=1;whiteSpace=wrap;html=1;" vertex="1" parent="1">
          <mxGeometry x="-30" y="810" width="120" height="60" as="geometry" />
        </mxCell>
        <mxCell id="LLo9nAMNrPa8nIQ_r4en-27" style="edgeStyle=orthogonalEdgeStyle;rounded=0;orthogonalLoop=1;jettySize=auto;html=1;" edge="1" parent="1" source="LLo9nAMNrPa8nIQ_r4en-26">
          <mxGeometry relative="1" as="geometry">
            <mxPoint x="320" y="440" as="targetPoint" />
            <Array as="points">
              <mxPoint x="720" y="660" />
              <mxPoint x="720" y="420" />
              <mxPoint x="320" y="420" />
            </Array>
          </mxGeometry>
        </mxCell>
        <mxCell id="LLo9nAMNrPa8nIQ_r4en-26" value="Очікування повторного дзвінку" style="rounded=1;whiteSpace=wrap;html=1;" vertex="1" parent="1">
          <mxGeometry x="570" y="630" width="120" height="60" as="geometry" />
        </mxCell>
        <mxCell id="LLo9nAMNrPa8nIQ_r4en-30" style="edgeStyle=orthogonalEdgeStyle;rounded=0;orthogonalLoop=1;jettySize=auto;html=1;" edge="1" parent="1" source="LLo9nAMNrPa8nIQ_r4en-29" target="LLo9nAMNrPa8nIQ_r4en-31">
          <mxGeometry relative="1" as="geometry">
            <mxPoint x="120" y="1000" as="targetPoint" />
          </mxGeometry>
        </mxCell>
        <mxCell id="LLo9nAMNrPa8nIQ_r4en-29" value="Чи є вільне таксі?" style="rhombus;whiteSpace=wrap;html=1;" vertex="1" parent="1">
          <mxGeometry x="-40" y="915" width="140" height="80" as="geometry" />
        </mxCell>
        <mxCell id="LLo9nAMNrPa8nIQ_r4en-32" style="edgeStyle=orthogonalEdgeStyle;rounded=0;orthogonalLoop=1;jettySize=auto;html=1;" edge="1" parent="1" source="LLo9nAMNrPa8nIQ_r4en-31" target="LLo9nAMNrPa8nIQ_r4en-33">
          <mxGeometry relative="1" as="geometry">
            <mxPoint x="280" y="1000" as="targetPoint" />
          </mxGeometry>
        </mxCell>
        <mxCell id="LLo9nAMNrPa8nIQ_r4en-31" value="Проїзд до клієнта" style="rounded=1;whiteSpace=wrap;html=1;" vertex="1" parent="1">
          <mxGeometry x="130" y="925" width="120" height="60" as="geometry" />
        </mxCell>
        <mxCell id="LLo9nAMNrPa8nIQ_r4en-34" style="edgeStyle=orthogonalEdgeStyle;rounded=0;orthogonalLoop=1;jettySize=auto;html=1;" edge="1" parent="1" source="LLo9nAMNrPa8nIQ_r4en-33" target="LLo9nAMNrPa8nIQ_r4en-4">
          <mxGeometry relative="1" as="geometry" />
        </mxCell>
        <mxCell id="LLo9nAMNrPa8nIQ_r4en-33" value="&lt;meta charset=&quot;utf-8&quot;&gt;Обслуговування клієнта" style="rounded=1;whiteSpace=wrap;html=1;" vertex="1" parent="1">
          <mxGeometry x="280" y="925" width="120" height="60" as="geometry" />
        </mxCell>
        <mxCell id="LLo9nAMNrPa8nIQ_r4en-13" value="так" style="text;html=1;align=center;verticalAlign=middle;resizable=0;points=[];autosize=1;strokeColor=none;fillColor=none;" vertex="1" parent="1">
          <mxGeometry x="420" y="690" width="40" height="30" as="geometry" />
        </mxCell>
      </root>
    </mxGraphModel>
  </diagram>
</mxfile>
